<?xml version="1.0" standalone="no"?>
<!DOCTYPE svg PUBLIC "-//W3C//DTD SVG 20010904//EN"
 "http://www.w3.org/TR/2001/REC-SVG-20010904/DTD/svg10.dtd">
<svg version="1.0" xmlns="http://www.w3.org/2000/svg"
 width="662.000000pt" height="662.000000pt" viewBox="0 0 662.000000 662.000000"
 preserveAspectRatio="xMidYMid meet">
<metadata>
Created by potrace 1.11, written by Peter Selinger 2001-2013
</metadata>
<g transform="translate(0.000000,662.000000) scale(0.100000,-0.100000)"
fill="#000000" stroke="none">
<path d="M0 3310 l0 -3310 3310 0 3310 0 0 3310 0 3310 -3310 0 -3310 0 0
-3310z m2531 1800 c412 -336 757 -615 767 -621 16 -10 124 75 780 610 419 341
764 621 767 621 3 0 4 -741 3 -1647 l-3 -1648 -1535 0 -1535 0 -3 1648 c-1
906 0 1647 4 1647 3 0 342 -275 755 -610z m1050 -3120 c168 -32 305 -164 326
-315 l6 -45 -104 0 -104 0 -26 59 c-22 48 -35 64 -75 87 -42 25 -60 29 -119
29 -151 -1 -236 -96 -252 -282 -19 -228 92 -375 273 -360 87 7 139 41 174 114
l25 53 102 0 c56 0 104 -3 106 -7 10 -17 -36 -135 -71 -181 -88 -117 -204
-172 -362 -172 -134 0 -240 42 -326 127 -153 152 -187 449 -77 667 88 174 293
266 504 226z m-1407 -343 c76 -185 141 -335 144 -332 3 2 66 154 141 337 l137
333 132 3 132 3 0 -506 0 -505 -105 0 -105 0 -2 327 -3 326 -128 -321 -129
-322 -72 0 -72 0 -130 323 -129 322 -3 -327 -2 -328 -105 0 -105 0 0 498 c0
274 3 502 7 506 4 3 63 5 132 4 l126 -3 139 -338z m2676 253 l0 -90 -150 0
-150 0 -2 -412 -3 -413 -107 -3 -108 -3 0 416 0 415 -150 0 -150 0 0 90 0 90
410 0 410 0 0 -90z"/>
</g>
</svg>
